<?xml version="1.0" encoding="utf-8"?>
<!-- Generator: Adobe Illustrator 21.1.0, SVG Export Plug-In . SVG Version: 6.00 Build 0)  -->
<svg version="1.1" id="Layer_1" xmlns="http://www.w3.org/2000/svg" xmlns:xlink="http://www.w3.org/1999/xlink" x="0px" y="0px"
	 viewBox="0 0 50 50" style="enable-background:new 0 0 50 50;" xml:space="preserve">
<style type="text/css">
	.st0{fill:#6D4C7F;}
</style>
<title>Smile_Logo_Web</title>
<path class="st0" d="M25,42.1C25,42.1,25,42.1,25,42.1c-9.4,0-17-7.6-17-17c0-0.9,0.7-1.6,1.6-1.6c0,0,0,0,0,0
	c0.9,0,1.6,0.7,1.6,1.6c0,7.6,6.2,13.7,13.7,13.7c0,0,0,0,0,0c7.6,0,13.7-6.2,13.7-13.7c0-0.9,0.7-1.6,1.6-1.6c0,0,0,0,0,0
	c0.9,0,1.6,0.7,1.6,1.6C42,34.4,34.4,42.1,25,42.1z"/>
<path class="st0" d="M40.2,17.2c-0.9,0-1.6-0.7-1.6-1.6c0-2.4-2-4.4-4.4-4.4s-4.4,2-4.4,4.4c0,0.9-0.7,1.6-1.6,1.6s-1.6-0.7-1.6-1.6
	c0-4.2,3.4-7.7,7.7-7.7s7.7,3.4,7.7,7.7C41.9,16.5,41.1,17.2,40.2,17.2z"/>
<path class="st0" d="M21.7,17.2c-0.9,0-1.6-0.7-1.6-1.6c0-2.4-2-4.4-4.4-4.4s-4.4,2-4.4,4.4c0,0.9-0.7,1.6-1.6,1.6S8,16.5,8,15.6
	c0-4.2,3.4-7.7,7.7-7.7s7.7,3.4,7.7,7.7C23.3,16.5,22.6,17.2,21.7,17.2z"/>
</svg>
